<svg width="160" height="160" viewBox="0 0 160 160" fill="none" xmlns="http://www.w3.org/2000/svg">
<path d="M70 0H90V40H70V0Z" fill="#101419"/>
<path d="M90 120H70V160H90V120Z" fill="#101419"/>
<path d="M129.497 16.3604L143.64 30.5024L95.5314 78.6106L81.3893 64.4685L129.497 16.3604Z" fill="#101419"/>
<path d="M58.7868 115.355L44.6447 101.213L16.3604 129.497L30.5026 143.64L58.7868 115.355Z" fill="#101419"/>
<path d="M160 70V90H120V70H160Z" fill="#101419"/>
<path d="M40 90V70H0V90H40Z" fill="#101419"/>
<path d="M143.64 129.498L129.497 143.64L101.213 115.355L115.355 101.213L143.64 129.498Z" fill="#101419"/>
<path d="M44.6447 58.7869L58.7868 44.6448L30.5025 16.3606L16.3604 30.5027L44.6447 58.7869Z" fill="#101419"/>
</svg>
